<svg preserveAspectRatio="none" width="100%" height="100%" overflow="visible" style="display: block;" viewBox="0 0 32 32" fill="none" xmlns="http://www.w3.org/2000/svg">
<g id="Docuemtn 2 line ai  - Iconly Pro">
<path id="Vector" d="M12 10.6667H20" stroke="var(--stroke-0, #0C5BEF)" stroke-width="2" stroke-linecap="round" stroke-linejoin="round"/>
<path id="Vector_2" d="M12 16H16.8803" stroke="var(--stroke-0, #0C5BEF)" stroke-width="2" stroke-linecap="round" stroke-linejoin="round"/>
<path id="Vector_3" d="M16.8467 28H11.2688C8.23585 28 5.77604 25.5401 5.77604 22.5072V9.49276C5.77604 6.45981 8.23585 4 11.2688 4H20.7312C23.7641 4 26.224 6.45981 26.224 9.49276V17.3648" stroke="var(--stroke-0, #0C5BEF)" stroke-width="2" stroke-linecap="round" stroke-linejoin="round"/>
<path id="Vector_4" d="M22.9393 27.4475L23.0761 27.0772C23.5919 25.6813 24.6908 24.5808 26.0847 24.0643L26.4543 23.9273L26.0847 23.7903C24.6908 23.2737 23.5919 22.1732 23.0761 20.7773L22.9393 20.4071L22.8025 20.7773C22.2867 22.1732 21.1877 23.2737 19.7939 23.7903L19.4243 23.9273L19.7939 24.0643C21.1877 24.5808 22.2867 25.6813 22.8025 27.0772L22.9393 27.4475Z" stroke="var(--stroke-0, #0C5BEF)" stroke-width="2" stroke-linecap="round" stroke-linejoin="round"/>
</g>
</svg>
