<?xml version="1.0" encoding="UTF-8"?>
<svg id="Capa_1" xmlns="http://www.w3.org/2000/svg" version="1.1" viewBox="0 0 22.1 25">
  <!-- Generator: Adobe Illustrator 30.5.1, SVG Export Plug-In . SVG Version: 2.1.4 Build 3)  -->
  <defs>
    <style>
      .st0 {
        fill: #0c5bef;
      }
    </style>
  </defs>
  <path class="st0" d="M12,4.1c-2,0-4,.8-5.4,2.1-1.4,1.4-2.3,3.2-2.3,5.1h2.2c0-1.4.6-2.7,1.6-3.6,1-1,2.4-1.5,3.9-1.5v-2.1Z"/>
  <path class="st0" d="M12,2.4V0c-3.2,0-6.2,1.2-8.5,3.3C1.3,5.4,0,8.3,0,11.3h2.6c0-2.3,1-4.6,2.8-6.3,1.8-1.7,4.2-2.6,6.7-2.6"/>
  <path class="st0" d="M21.3,10.5c-.5-.9-1.3-1.6-2.3-2.1-1-.5-2.2-.7-3.6-.7h-3.4c-1,0-2,.4-2.7,1.1s-1.1,1.6-1.1,2.5v13.7h3.8v-5.6h3.4c1.4,0,2.6-.2,3.6-.7,1-.5,1.8-1.2,2.3-2,.5-.9.8-1.9.8-3s-.3-2.1-.8-3ZM17.8,15c-.2.4-.6.8-1.1,1-.5.3-1.1.4-1.9.4h-2.7v-5.9h2.7c.8,0,1.4.1,1.9.4.5.2.9.6,1.1,1,.2.4.4.9.4,1.5s-.1,1.1-.4,1.5Z"/>
</svg>