<svg viewBox="0 0 24 24" fill="none" xmlns="http://www.w3.org/2000/svg" aria-hidden="true">
  <path d="M13.5254 5.76465C13.7072 5.39252 14.1562 5.23816 14.5283 5.41992L19.9717 8.08008L20.1553 8.17773C20.9917 8.66436 21.4334 9.49614 21.4834 10.3486C21.4939 10.3994 21.5003 10.4519 21.5 10.5059L21.4668 15.9189C21.4642 16.3331 21.126 16.6675 20.7119 16.665C20.2978 16.6623 19.9642 16.3243 19.9668 15.9102L19.9844 12.9355C19.9799 12.9377 19.9761 12.9412 19.9717 12.9434L17.8506 13.9795V18.417C17.8506 19.5582 17.1775 20.6247 16.1025 21.0752C13.3453 22.2301 10.5617 22.2872 7.79002 21.2852L7.23533 21.0703C6.15308 20.6229 5.47264 19.5533 5.47264 18.4053V13.8945L3.51853 12.9395C1.49442 11.9502 1.49425 9.06659 3.51756 8.07715C3.88959 7.89532 4.33851 8.04893 4.52049 8.4209C4.70217 8.79293 4.54773 9.24192 4.17576 9.42383C3.27446 9.86471 3.27446 11.1505 4.17674 11.5918L10.8799 14.8682C11.4911 15.1079 12.1774 15.0828 12.7724 14.792L19.3135 11.5957C20.2152 11.1547 20.215 9.86907 19.3135 9.42773L13.8701 6.76758C13.498 6.58578 13.3438 6.13674 13.5254 5.76465ZM6.97264 18.4053C6.97264 18.9696 7.3087 19.477 7.80857 19.6836H7.8076C10.4025 20.7544 12.9587 20.7662 15.5224 19.6924C16.0175 19.4849 16.3506 18.9784 16.3506 18.417V14.7129L13.4316 16.1396C12.5314 16.5795 11.5029 16.6474 10.5625 16.3457C10.4943 16.3339 10.4256 16.316 10.3603 16.2842L10.2656 16.2373C10.1923 16.207 10.1186 16.1747 10.0469 16.1396L6.97264 14.6367V18.4053ZM12.8379 8.57227C13.1679 8.57229 13.4595 8.78876 13.5556 9.10449C13.6547 9.42999 13.9093 9.68427 14.2334 9.7832C14.5489 9.87943 14.7645 10.1712 14.7646 10.501C14.7645 10.8308 14.5488 11.1215 14.2334 11.2178C13.9092 11.3167 13.6547 11.5719 13.5556 11.8975C13.4596 12.2133 13.168 12.4287 12.8379 12.4287C12.5079 12.4285 12.2161 12.2132 12.1201 11.8975C12.021 11.5719 11.7666 11.3166 11.4424 11.2178C11.1271 11.1214 10.9112 10.8306 10.9111 10.501C10.9112 10.1712 11.127 9.87949 11.4424 9.7832C11.7666 9.68436 12.021 9.43015 12.1201 9.10449C12.2161 8.78874 12.5079 8.57243 12.8379 8.57227ZM8.44236 3C8.7563 3.00002 9.03668 3.19575 9.14549 3.49023L9.24705 3.76367C9.55212 4.58911 10.2019 5.23961 11.0254 5.54492L11.2988 5.64648C11.5929 5.75554 11.7881 6.03598 11.7881 6.34961C11.788 6.66318 11.5928 6.94372 11.2988 7.05273L11.0254 7.1543C10.2019 7.45965 9.55208 8.11007 9.24705 8.93555L9.14549 9.20898C9.03658 9.50327 8.75617 9.6992 8.44236 9.69922C8.12861 9.69908 7.84806 9.50327 7.73924 9.20898L7.63767 8.93555C7.33262 8.10997 6.68293 7.45962 5.85935 7.1543L5.58592 7.05273C5.29204 6.94365 5.09675 6.66309 5.09666 6.34961C5.09666 6.0361 5.29205 5.75563 5.58592 5.64648L5.85935 5.54492C6.68283 5.23966 7.33255 4.58909 7.63767 3.76367L7.73924 3.49023L7.78709 3.38477C7.9179 3.14993 8.16763 3.00012 8.44236 3ZM8.44139 5.39746C8.17369 5.7604 7.85388 6.08173 7.49119 6.34961C7.85373 6.61739 8.17377 6.93802 8.44139 7.30078C8.70894 6.9379 9.03004 6.6175 9.39256 6.34961C9.02979 6.08156 8.70907 5.76062 8.44139 5.39746Z" fill="#0C5BEF"/>
</svg>
