<svg viewBox="0 0 24 24" fill="none" xmlns="http://www.w3.org/2000/svg" aria-hidden="true">
  <path d="M15.5488 2.25C18.2374 2.25023 20.4177 4.43055 20.418 7.11914V13.0234C20.418 13.4377 20.0822 13.7734 19.668 13.7734C19.2538 13.7734 18.918 13.4376 18.918 13.0234V7.11914C18.9177 5.25899 17.409 3.75023 15.5488 3.75H8.45117C6.59102 3.75023 5.08226 5.25898 5.08203 7.11914V16.8809C5.08228 18.741 6.59103 20.2498 8.45117 20.25H12.6348C13.049 20.25 13.3848 20.5858 13.3848 21C13.3848 21.4142 13.049 21.75 12.6348 21.75H8.45117C5.76259 21.7498 3.58228 19.5694 3.58203 16.8809V7.11914C3.58226 4.43056 5.76259 2.25023 8.45117 2.25H15.5488ZM17.2051 14.5557C17.5188 14.5559 17.7995 14.7516 17.9082 15.0459L18.0107 15.3232C18.3218 16.1649 18.9845 16.8284 19.8242 17.1396L20.1016 17.2422C20.3955 17.3513 20.5909 17.6327 20.5908 17.9463C20.5905 18.2597 20.3955 18.5405 20.1016 18.6494L19.8242 18.752C18.9844 19.0632 18.3218 19.7266 18.0107 20.5684L17.9082 20.8457C17.7994 21.1399 17.5187 21.3357 17.2051 21.3359C16.8912 21.3359 16.6099 21.14 16.501 20.8457L16.3984 20.5684C16.1068 19.7792 15.5061 19.1469 14.7402 18.8145L14.585 18.752L14.3076 18.6494C14.0137 18.5405 13.8187 18.2597 13.8184 17.9463C13.8183 17.6326 14.0135 17.3513 14.3076 17.2422L14.585 17.1396C15.4247 16.8284 16.0873 16.165 16.3984 15.3232L16.501 15.0459C16.6098 14.7514 16.8911 14.5557 17.2051 14.5557ZM17.2041 16.96C16.928 17.337 16.5955 17.669 16.2188 17.9453C16.5954 18.2215 16.928 18.5538 17.2041 18.9307C17.4801 18.5537 17.8128 18.2216 18.1895 17.9453C17.8128 17.669 17.4801 17.3369 17.2041 16.96ZM12.6602 11.25C13.0744 11.25 13.4102 11.5858 13.4102 12C13.4102 12.4142 13.0744 12.75 12.6602 12.75H9C8.58579 12.75 8.25 12.4142 8.25 12C8.25 11.5858 8.58579 11.25 9 11.25H12.6602ZM15 7.25C15.4142 7.25 15.75 7.58579 15.75 8C15.75 8.41421 15.4142 8.75 15 8.75H9C8.58579 8.75 8.25 8.41421 8.25 8C8.25 7.58579 8.58579 7.25 9 7.25H15Z" fill="#0C5BEF"/>
</svg>
