<svg viewBox="0 0 24 24" fill="none" xmlns="http://www.w3.org/2000/svg" aria-hidden="true">
  <path d="M12 2.25C17.3848 2.25 21.75 6.61523 21.75 12C21.75 17.3848 17.3848 21.75 12 21.75H4.60547C3.3264 21.75 2.59732 20.288 3.36719 19.2666L4.31934 18.0029C3.02421 16.3479 2.25 14.2639 2.25 12C2.25 6.61523 6.61523 2.25 12 2.25ZM12 3.75C7.44365 3.75 3.75 7.44365 3.75 12C3.75 13.9706 4.43961 15.7784 5.5918 17.1973C5.94635 17.634 5.99096 18.2791 5.62793 18.7607L4.56543 20.1699C4.5591 20.1783 4.55664 20.1839 4.55566 20.1865C4.55463 20.1893 4.5539 20.1917 4.55371 20.1943C4.5533 20.2001 4.5546 20.2107 4.56055 20.2227C4.56647 20.2344 4.57427 20.241 4.5791 20.2441C4.58125 20.2455 4.58316 20.2472 4.58594 20.248C4.58862 20.2488 4.59499 20.25 4.60547 20.25H12C16.5564 20.25 20.25 16.5564 20.25 12C20.25 7.44365 16.5564 3.75 12 3.75ZM12 8C12.3752 8.00004 12.7107 8.23347 12.8408 8.58496L12.9619 8.91211C13.3267 9.89777 14.1034 10.6744 15.0879 11.0391L15.415 11.1602C15.7665 11.2904 15.9999 11.6255 16 12C15.9999 12.3745 15.7666 12.7097 15.415 12.8398L15.0879 12.9609C14.1034 13.3255 13.3267 14.1021 12.9619 15.0879L12.8408 15.415C12.7106 15.7664 12.3751 16 12 16C11.6249 16 11.2894 15.7664 11.1592 15.415L11.0381 15.0879C10.6734 14.1021 9.89662 13.3255 8.91211 12.9609L8.58496 12.8398C8.23341 12.7096 8.00006 12.3745 8 12C8.00006 11.6255 8.23347 11.2904 8.58496 11.1602L8.91211 11.0391C9.8966 10.6744 10.6734 9.89773 11.0381 8.91211L11.1592 8.58496L11.2168 8.45996C11.3733 8.17942 11.6714 8.00001 12 8Z" fill="#0C5BEF"/>
</svg>
