<svg viewBox="0 0 20 20" fill="none" xmlns="http://www.w3.org/2000/svg" aria-hidden="true">
<g id="Image - Iconly Pro">
<path fill-rule="evenodd" clip-rule="evenodd" d="M4.03374 4.10269C3.47006 4.70681 3.12826 5.59098 3.12826 6.68787V13.3098C3.12826 14.4076 3.46856 15.2919 4.03108 15.8958C4.58893 16.4947 5.41181 16.8686 6.48436 16.8686H13.5117C14.5839 16.8686 15.409 16.4946 15.9689 15.8952C16.5333 15.2909 16.8751 14.4067 16.8751 13.3098V6.68787C16.8751 5.591 16.5333 4.70701 15.969 4.10299C15.4091 3.50374 14.584 3.12988 13.5117 3.12988H6.48436C5.41622 3.12988 4.59296 3.50338 4.03374 4.10269ZM3.11981 3.24992C3.93979 2.37112 5.10708 1.87988 6.48436 1.87988H13.5117C14.8921 1.87988 16.0613 2.37076 16.8823 3.24962C17.699 4.12372 18.1251 5.33123 18.1251 6.68787V13.3098C18.1251 14.6664 17.699 15.8741 16.8824 16.7484C16.0613 17.6275 14.8922 18.1186 13.5117 18.1186H6.48436C5.10338 18.1186 3.93572 17.6274 3.11639 16.7478C2.30174 15.8732 1.87826 14.6656 1.87826 13.3098V6.68787C1.87826 5.33124 2.30429 4.12392 3.11981 3.24992Z" fill="currentColor"/>
<path fill-rule="evenodd" clip-rule="evenodd" d="M7.6628 6.94642C7.22021 6.94642 6.86238 7.30436 6.86238 7.74602C6.86238 8.18768 7.22021 8.54558 7.6628 8.54558C8.10434 8.54558 8.46242 8.18791 8.46242 7.74602C8.46242 7.30413 8.10434 6.94642 7.6628 6.94642ZM5.61238 7.74602C5.61238 6.61308 6.53078 5.69642 7.6628 5.69642C8.79425 5.69642 9.71242 6.61331 9.71242 7.74602C9.71242 8.87875 8.79425 9.79558 7.6628 9.79558C6.53078 9.79558 5.61238 8.879 5.61238 7.74602Z" fill="currentColor"/>
<path fill-rule="evenodd" clip-rule="evenodd" d="M18.1223 8.98858C18.1361 9.3335 17.8677 9.62425 17.5228 9.63808C14.0914 9.77525 11.1508 11.8398 9.7515 14.7734C9.34175 15.6393 9.06858 16.5718 8.95492 17.5657C8.91575 17.9087 8.60592 18.1548 8.26301 18.1157C7.92007 18.0764 7.67384 17.7667 7.71305 17.4237C7.84263 16.2903 8.15473 15.2252 8.62208 14.2378L8.62283 14.2363C10.214 10.8994 13.5603 8.54542 17.4728 8.38908C17.8178 8.37525 18.1086 8.64375 18.1223 8.98858Z" fill="currentColor"/>
<path fill-rule="evenodd" clip-rule="evenodd" d="M1.8771 10.9265C1.90513 10.5825 2.20675 10.3263 2.55079 10.3543C5.42302 10.5883 7.95863 11.999 9.67133 14.1097C9.88883 14.3778 9.84783 14.7713 9.57983 14.9888C9.31183 15.2063 8.91817 15.1653 8.70067 14.8973C7.19608 13.0431 4.97059 11.8057 2.44927 11.6002C2.10524 11.5722 1.84907 11.2706 1.8771 10.9265Z" fill="currentColor"/>
</g>
</svg>
